<svg width="14" height="14" viewBox="0 0 14 14" fill="none" xmlns="http://www.w3.org/2000/svg">
<path d="M4.23684 0C1.90341 0 0 1.90341 0 4.23684V9.76316C0 12.0963 1.90334 14 4.23684 14H9.76316C12.0963 14 14 12.0963 14 9.76316V4.23684C14 1.90334 12.0963 0 9.76316 0H4.23684ZM4.23684 1.10526H9.76316C11.4989 1.10526 12.8947 2.50076 12.8947 4.23684V9.76316C12.8947 11.4988 11.4988 12.8947 9.76316 12.8947H4.23684C2.50076 12.8947 1.10526 11.4989 1.10526 9.76316V4.23684C1.10526 2.5007 2.5007 1.10526 4.23684 1.10526ZM10.6842 2.57895C10.2771 2.57895 9.94737 2.90868 9.94737 3.31579C9.94737 3.72289 10.2771 4.05263 10.6842 4.05263C11.0913 4.05263 11.4211 3.72289 11.4211 3.31579C11.4211 2.90868 11.0913 2.57895 10.6842 2.57895ZM7 3.31579C4.97191 3.31579 3.31579 4.97191 3.31579 7C3.31579 9.02809 4.97191 10.6842 7 10.6842C9.02809 10.6842 10.6842 9.02809 10.6842 7C10.6842 4.97191 9.02809 3.31579 7 3.31579ZM7 4.42105C8.43064 4.42105 9.57895 5.56936 9.57895 7C9.57895 8.43064 8.43064 9.57895 7 9.57895C5.56936 9.57895 4.42105 8.43064 4.42105 7C4.42105 5.56936 5.56936 4.42105 7 4.42105Z" fill="white"/>
</svg>
