<svg width="14" height="14" viewBox="0 0 14 14" fill="none" xmlns="http://www.w3.org/2000/svg">
<path d="M14 1.65715C13.4847 1.93876 12.9312 2.12826 12.3502 2.21373C12.9436 1.77642 13.3986 1.08401 13.6129 0.258413C13.0583 0.663259 12.4434 0.957452 11.7886 1.11647C11.2647 0.429362 10.5184 0 9.69247 0C8.10623 0 6.82043 1.58294 6.82043 3.53429C6.82043 3.81125 6.84628 4.08159 6.89474 4.33934C4.50783 4.19225 2.39175 2.78489 0.974578 0.646031C0.727972 1.16816 0.586362 1.7751 0.586362 2.42378C0.586362 3.64958 1.09303 4.7316 1.86354 5.36504C1.39295 5.34649 0.94981 5.18747 0.562671 4.92309C0.562671 4.93833 0.562671 4.95224 0.562671 4.96748C0.562671 6.6803 1.55232 8.10885 2.86666 8.43286C2.62598 8.5137 2.37183 8.55677 2.10961 8.55677C1.92493 8.55677 1.74455 8.53424 1.56955 8.49382C1.93516 9.89786 2.99588 10.9202 4.25261 10.9487C3.26995 11.8969 2.03154 12.4621 0.685435 12.4621C0.453906 12.4621 0.225068 12.4455 0 12.4124C1.27126 13.4149 2.78051 14 4.40283 14C9.68601 14 12.5742 8.61441 12.5742 3.94377C12.5742 3.79071 12.5715 3.63832 12.5661 3.48658C13.1277 2.98765 13.615 2.36547 14 1.65715Z" fill="white"/>
</svg>
